<?xml version="1.0" standalone="no"?>
<!DOCTYPE svg PUBLIC "-//W3C//DTD SVG 20010904//EN"
 "http://www.w3.org/TR/2001/REC-SVG-20010904/DTD/svg10.dtd">
<svg version="1.0" xmlns="http://www.w3.org/2000/svg"
 width="1024.000000pt" height="1024.000000pt" viewBox="0 0 1024.000000 1024.000000"
 preserveAspectRatio="xMidYMid meet">
<metadata>
Created by potrace 1.16, written by Peter Selinger 2001-2019
</metadata>
<g transform="translate(0.000000,1024.000000) scale(0.100000,-0.100000)"
fill="#000000" stroke="none">
<path d="M4860 5433 c0 -1 10 -13 23 -27 22 -23 25 -24 45 -11 13 10 23 12 27
5 4 -6 71 -9 178 -8 l172 2 -175 6 -175 6 177 2 c180 2 213 -1 201 -22 -5 -8
-3 -8 8 0 8 6 22 10 31 9 9 -2 22 3 28 10 6 8 18 11 26 8 8 -3 21 0 29 7 8 6
19 9 25 5 5 -3 10 -1 10 4 0 6 -15 11 -32 11 -26 0 -30 -3 -18 -11 12 -8 9 -9
-11 -5 -19 4 -29 1 -33 -10 -4 -9 -11 -12 -18 -7 -7 4 -23 6 -35 4 -18 -2 -22
1 -17 16 4 13 3 15 -4 4 -5 -7 -12 -9 -15 -5 -3 5 -84 7 -181 4 -114 -3 -176
-1 -176 5 0 6 -6 1 -12 -10 -16 -28 -31 -36 -40 -22 -12 19 -9 27 6 21 8 -3
16 -2 19 3 3 4 -10 8 -29 8 -19 0 -34 -1 -34 -2z"/>
</g>
</svg>
