<?xml version="1.0" standalone="no"?>
<!DOCTYPE svg PUBLIC "-//W3C//DTD SVG 20010904//EN"
 "http://www.w3.org/TR/2001/REC-SVG-20010904/DTD/svg10.dtd">
<svg version="1.0" xmlns="http://www.w3.org/2000/svg"
 width="1024.000000pt" height="1024.000000pt" viewBox="0 0 1024.000000 1024.000000"
 preserveAspectRatio="xMidYMid meet">
<metadata>
Created by potrace 1.16, written by Peter Selinger 2001-2019
</metadata>
<g transform="translate(0.000000,1024.000000) scale(0.100000,-0.100000)"
fill="#007F25" stroke="none">
<path d="M5010 8628 c0 -3 -27 -5 -59 -5 -33 1 -57 -1 -54 -6 2 -4 -8 -7 -24
-6 -15 1 -57 -5 -93 -14 -36 -8 -72 -15 -80 -16 -46 -4 -67 -9 -88 -20 -12 -6
-27 -9 -32 -6 -6 3 -10 1 -10 -5 0 -7 -7 -10 -15 -6 -8 3 -15 1 -15 -5 0 -6
-7 -9 -15 -5 -8 3 -15 0 -15 -5 0 -7 -9 -9 -21 -6 -12 3 -18 3 -15 -1 9 -8
-85 -43 -97 -35 -6 3 -7 2 -4 -4 7 -12 -40 -36 -54 -28 -5 4 -9 2 -9 -3 0 -12
-80 -53 -90 -47 -5 3 -14 -4 -20 -15 -7 -13 -17 -19 -26 -16 -8 3 -12 2 -9 -3
5 -9 -32 -27 -48 -23 -5 1 -6 -1 -3 -6 6 -9 -42 -37 -57 -33 -5 1 -6 -3 -2 -9
6 -9 -8 -14 -28 -11 -5 1 -6 -2 -3 -7 3 -5 -15 -24 -40 -42 -26 -18 -65 -50
-87 -71 -23 -21 -45 -35 -51 -32 -5 3 -6 2 -3 -4 3 -5 -11 -23 -33 -39 -21
-16 -45 -40 -54 -54 -8 -14 -35 -47 -60 -74 -25 -27 -46 -51 -46 -53 0 -15
-54 -72 -63 -66 -6 3 -7 1 -3 -5 6 -9 -22 -61 -44 -82 -3 -3 -11 -16 -18 -30
-7 -14 -26 -47 -42 -75 -17 -27 -35 -62 -41 -77 -6 -16 -15 -26 -19 -23 -4 3
-6 -4 -3 -15 3 -12 0 -20 -6 -20 -7 0 -10 -3 -8 -8 3 -4 -3 -25 -14 -46 -10
-22 -19 -45 -19 -52 0 -6 -7 -17 -15 -24 -8 -7 -12 -16 -10 -21 9 -14 -6 -59
-18 -52 -5 3 -7 1 -3 -5 9 -15 -26 -152 -37 -145 -6 3 -7 1 -4 -4 8 -13 -3
-104 -12 -99 -3 2 -7 -19 -9 -48 -13 -251 -16 -383 -9 -379 5 3 7 -19 5 -50
-1 -30 1 -53 6 -50 4 3 7 -13 4 -35 -2 -22 1 -38 5 -35 5 3 8 -13 5 -35 -2
-23 1 -38 6 -35 5 3 7 -6 4 -20 -3 -15 -2 -24 2 -22 11 7 23 -63 14 -77 -4 -6
-3 -8 3 -5 13 8 27 -39 17 -55 -4 -7 -3 -8 4 -4 11 7 16 -17 15 -61 -1 -7 3
-11 7 -8 12 7 23 -32 14 -46 -4 -8 -3 -9 4 -5 7 4 12 1 12 -6 0 -7 14 -41 30
-76 17 -34 28 -67 24 -74 -4 -6 -3 -9 2 -5 5 3 14 -6 21 -19 8 -18 8 -22 0
-17 -11 6 8 -20 40 -54 6 -7 17 -26 25 -43 7 -16 17 -30 22 -30 4 0 6 -7 2
-15 -3 -8 0 -15 7 -15 16 0 49 -55 39 -65 -4 -5 -1 -5 6 -1 6 4 12 3 12 -3 0
-6 14 -26 31 -46 17 -19 27 -35 23 -35 -5 0 -1 -5 9 -11 9 -6 14 -16 11 -22
-4 -7 -3 -9 1 -4 11 9 55 -31 55 -50 0 -8 3 -12 8 -10 4 2 17 -7 29 -20 12
-13 19 -23 15 -23 -4 0 0 -5 8 -10 8 -5 15 -15 15 -21 0 -7 8 -13 18 -15 10
-1 37 -22 60 -46 23 -24 47 -45 52 -48 6 -3 9 -9 7 -13 -1 -5 1 -6 6 -3 5 3
20 -6 35 -20 14 -13 30 -24 34 -24 5 0 20 -11 35 -25 15 -14 32 -25 38 -25 5
0 10 -4 10 -10 0 -5 6 -9 13 -7 6 1 11 -3 10 -8 -1 -6 8 -12 19 -12 12 -1 26
-7 32 -14 8 -9 7 -10 -4 -4 -9 5 -12 4 -7 -1 5 -5 16 -9 25 -9 9 0 16 -6 14
-13 -1 -8 2 -11 7 -8 13 8 62 -19 53 -29 -4 -5 -2 -5 5 -1 12 6 125 -42 131
-56 2 -5 8 -6 13 -2 5 3 15 2 22 -3 6 -4 14 -8 17 -8 21 -1 118 -40 114 -47
-3 -4 2 -5 10 -2 9 3 16 2 16 -4 0 -6 8 -8 18 -6 9 3 26 -2 37 -11 11 -9 14
-13 6 -9 -9 4 -12 3 -7 -4 4 -6 12 -9 19 -7 7 3 25 -6 41 -20 16 -14 26 -25
22 -25 -4 0 4 -11 18 -24 15 -13 26 -26 26 -30 0 -4 7 -14 15 -22 13 -13 20
-42 16 -66 0 -5 4 -8 10 -8 8 0 10 -22 7 -70 -3 -39 -2 -72 1 -75 10 -5 12
-63 4 -68 -5 -3 -6 -184 -3 -404 3 -219 2 -399 -1 -401 -3 -1 -4 -25 -1 -52
l5 -50 -369 2 c-461 4 -427 23 -424 -239 1 -133 4 -172 17 -197 10 -17 16 -34
16 -37 -1 -3 6 -5 15 -5 9 0 119 -1 245 -2 l227 -2 0 -76 0 -76 -30 5 c-16 4
-32 2 -35 -3 -3 -6 -44 -10 -90 -10 l-84 0 -3 -155 c-3 -149 -2 -155 17 -156
11 0 65 -1 120 -2 l100 -2 1 -72 2 -72 -207 -1 c-232 -1 -274 -8 -295 -49 -17
-32 -28 -371 -12 -371 5 0 7 -3 3 -6 -3 -3 7 -17 23 -31 l29 -24 364 1 363 1
1 -38 c1 -21 8 -62 17 -92 8 -30 13 -58 10 -63 -3 -4 2 -11 10 -14 9 -3 13
-10 10 -15 -3 -5 0 -9 5 -9 6 0 11 -6 11 -12 0 -14 118 -131 135 -135 6 -1 30
-10 55 -19 51 -18 191 -34 183 -21 -3 5 9 6 26 4 21 -4 29 -2 24 5 -4 7 2 9
15 6 12 -4 20 -3 17 2 -5 8 54 37 68 32 5 -1 6 2 2 8 -3 5 -2 10 3 10 13 0 81
68 74 74 -2 3 3 8 12 12 9 3 16 13 16 21 0 8 5 11 13 7 6 -4 9 -4 5 1 -4 4 2
30 12 59 17 43 20 77 20 211 0 115 4 165 13 174 10 11 9 13 -1 7 -9 -6 -12 55
-11 293 1 165 5 299 8 297 3 -2 6 13 6 34 0 21 -3 36 -7 33 -5 -2 -8 12 -8 31
0 20 4 36 9 36 4 0 5 19 0 43 -10 53 -12 290 -1 284 4 -3 7 12 7 33 0 21 -3
36 -7 33 -10 -6 -10 1 2 32 5 14 7 24 2 22 -9 -7 -6 498 3 514 6 8 4 10 -6 4
-11 -7 -12 -6 -2 6 13 16 12 36 -1 58 -5 7 -5 16 0 20 11 8 13 52 2 45 -4 -3
-8 2 -8 10 0 9 4 16 10 16 5 0 8 6 6 13 -10 32 -16 98 -8 93 5 -3 7 7 5 22 -8
50 -11 482 -3 477 4 -2 5 6 3 19 -6 28 43 157 63 169 8 4 14 15 14 24 0 9 2
14 5 11 3 -3 26 15 51 39 25 23 52 43 59 43 7 0 15 5 17 10 2 6 13 12 26 13
12 0 22 4 22 7 0 7 72 35 83 32 4 -1 7 2 7 6 0 5 19 17 43 28 23 10 68 36 99
56 31 21 60 38 63 38 10 0 159 114 216 165 31 27 79 70 107 94 28 25 49 48 47
51 -3 4 13 24 35 44 22 20 40 43 40 51 0 8 5 15 10 15 6 0 10 6 10 14 0 8 7
16 15 20 8 3 15 13 15 21 0 9 5 13 10 10 6 -3 10 1 10 9 0 9 5 16 10 16 6 0
10 9 10 20 0 11 5 19 11 18 7 -2 16 12 21 30 5 17 12 32 17 32 5 0 12 11 15
25 4 14 11 25 16 25 6 0 10 7 10 15 0 8 5 15 11 15 5 0 7 5 4 10 -3 6 -1 10 4
10 6 0 10 3 10 8 -3 20 2 32 13 26 6 -4 8 -3 5 3 -4 6 16 62 43 126 28 63 50
125 50 137 0 11 4 19 8 16 7 -4 11 12 12 57 1 9 5 15 10 12 6 -3 7 0 4 8 -3 8
0 18 5 22 6 3 9 11 6 16 -4 5 -3 14 1 21 4 7 9 21 10 32 1 12 9 82 18 156 18
156 25 330 13 323 -5 -3 -7 24 -5 60 1 36 -1 63 -6 60 -4 -3 -7 15 -5 40 2 25
0 43 -5 40 -5 -3 -7 10 -4 30 2 21 0 33 -6 30 -5 -3 -7 5 -4 20 3 15 2 24 -2
22 -7 -5 -34 104 -35 140 0 11 -6 26 -13 34 -7 7 -11 20 -8 27 3 8 1 14 -4 14
-5 0 -12 16 -16 35 -3 19 -10 38 -15 41 -5 3 -7 10 -4 15 4 5 1 9 -6 9 -7 0
-9 3 -6 7 4 3 2 12 -4 20 -6 7 -8 13 -4 13 5 0 0 9 -9 19 -11 12 -15 25 -10
33 4 7 4 10 -1 6 -11 -10 -37 41 -28 55 3 6 1 7 -5 3 -11 -6 -16 6 -13 27 0 4
-4 7 -10 7 -6 0 -9 6 -6 13 3 7 -4 19 -14 25 -10 7 -19 19 -19 27 0 8 -5 15
-11 15 -5 0 -7 5 -4 10 3 6 -1 13 -10 16 -10 4 -14 13 -10 22 3 9 3 13 -1 9
-12 -11 -33 13 -27 30 4 11 2 14 -5 9 -12 -7 -35 27 -25 38 3 3 0 6 -8 6 -15
0 -66 68 -61 83 1 5 -2 6 -7 3 -11 -7 -63 52 -56 64 3 5 0 12 -6 16 -8 5 -10
2 -5 -7 5 -10 4 -10 -6 1 -7 8 -41 39 -75 69 -34 29 -61 58 -60 63 1 6 -6 12
-17 13 -10 2 -27 13 -37 24 -11 12 -24 21 -30 21 -6 0 -7 6 -3 13 4 6 4 9 -1
5 -11 -11 -97 51 -89 64 4 6 2 8 -4 4 -9 -6 -82 30 -82 41 0 2 5 1 12 -3 7 -4
8 -3 4 5 -4 6 -11 9 -16 6 -11 -7 -172 79 -164 87 3 3 -1 6 -8 5 -34 -1 -49 4
-42 15 4 6 3 8 -3 5 -11 -7 -77 16 -69 24 2 2 -10 5 -27 5 -17 1 -33 6 -35 12
-2 6 -10 8 -18 5 -8 -3 -14 0 -14 6 0 6 -7 8 -15 5 -8 -4 -15 -2 -15 4 0 5 -6
10 -12 9 -31 -1 -49 4 -44 12 3 4 -6 6 -19 3 -14 -2 -25 0 -25 4 0 5 -12 10
-27 10 -16 1 -55 7 -88 14 -33 6 -73 11 -88 11 -17 -1 -26 3 -22 9 3 5 0 8 -7
5 -7 -3 -84 -1 -171 3 -86 4 -157 4 -157 0z m187 -465 c-3 -5 21 -6 54 -5 37
3 59 0 59 -7 0 -6 7 -8 15 -5 8 4 23 3 33 -1 9 -4 33 -9 52 -11 53 -5 190 -46
185 -54 -3 -5 5 -6 17 -2 16 4 19 2 13 -8 -5 -9 -4 -11 4 -6 13 8 181 -69 181
-84 0 -6 3 -9 8 -9 17 3 30 -2 50 -21 12 -12 22 -18 22 -15 0 13 68 -39 143
-108 26 -24 47 -42 47 -38 0 7 77 -76 127 -136 20 -25 32 -47 27 -54 -4 -7 -3
-9 4 -5 11 7 62 -59 62 -81 0 -7 5 -13 11 -13 6 0 8 -7 5 -16 -3 -8 -2 -13 3
-10 10 6 53 -69 44 -78 -3 -3 -2 -6 4 -6 13 0 65 -114 67 -146 0 -13 5 -24 10
-24 4 0 6 -9 3 -20 -3 -11 -2 -18 2 -16 4 3 15 -25 25 -62 17 -66 20 -84 36
-192 11 -74 12 -293 1 -286 -4 3 -6 -6 -3 -20 6 -30 -19 -175 -29 -168 -4 2
-5 -4 -2 -14 8 -32 -84 -287 -111 -304 -6 -4 -7 -8 -3 -8 10 0 -5 -28 -70
-128 -29 -45 -57 -80 -62 -78 -5 3 -8 -2 -7 -12 0 -9 -5 -16 -12 -14 -8 1 -11
-2 -7 -8 9 -15 -191 -213 -206 -204 -7 4 -9 3 -6 -3 14 -23 -259 -193 -285
-177 -7 5 -8 2 -3 -6 6 -10 4 -12 -9 -7 -9 4 -15 3 -12 -2 8 -12 -81 -44 -95
-35 -7 4 -9 3 -6 -3 9 -14 -83 -41 -248 -71 -16 -3 -100 -7 -185 -9 -153 -4
-338 15 -366 38 -6 5 -13 7 -16 4 -7 -7 -201 64 -210 78 -4 6 -8 9 -8 4 0 -6
-52 19 -146 71 -13 7 -24 18 -24 24 0 6 -3 9 -6 5 -8 -8 -77 39 -121 82 -18
17 -36 31 -40 31 -12 0 -138 120 -172 164 -17 21 -28 43 -24 49 3 6 1 7 -5 3
-12 -7 -35 27 -25 38 3 3 0 6 -8 6 -8 0 -22 12 -31 28 -9 15 -30 49 -47 77
-16 27 -27 53 -25 57 3 4 0 8 -6 8 -7 0 -9 7 -6 17 4 10 4 14 0 10 -16 -16
-112 248 -100 278 3 9 2 13 -4 10 -6 -3 -11 2 -11 12 -1 10 -4 29 -6 43 -15
83 -17 122 -18 283 0 107 4 181 10 185 6 4 11 27 13 52 2 25 6 46 11 48 4 1 6
14 3 29 -3 16 -1 24 5 20 6 -4 8 3 5 18 -2 15 0 25 7 25 7 0 9 5 6 10 -3 6 -1
10 5 10 6 0 8 4 5 10 -8 12 60 181 77 192 7 4 10 8 5 8 -7 0 20 60 32 70 3 3
13 19 21 35 8 17 21 34 27 38 7 4 13 14 13 22 0 7 9 16 19 20 12 4 18 12 14
21 -3 7 0 14 6 14 6 0 11 5 11 10 0 6 18 26 40 46 22 20 40 43 40 52 0 8 3 13
6 9 8 -8 34 18 34 33 0 6 5 10 12 8 6 -2 29 14 52 37 50 50 116 100 116 89 0
-5 8 1 18 13 9 12 33 31 52 42 69 42 241 122 249 116 5 -3 11 -1 13 4 7 22
188 64 363 84 59 7 186 7 182 0z"/>
<path d="M4597 7514 c-2 -3 -13 -6 -23 -9 -34 -7 -107 -35 -121 -46 -7 -6 -13
-9 -13 -5 0 6 -22 -10 -80 -61 -20 -18 -41 -29 -45 -25 -5 4 -5 1 -1 -5 4 -7
3 -13 -3 -13 -20 0 -91 -145 -107 -219 -19 -83 -15 -160 12 -256 9 -33 18 -70
18 -82 1 -11 4 -19 7 -17 4 2 13 -11 20 -29 7 -17 20 -43 29 -57 101 -154 109
-165 138 -196 7 -8 10 -19 6 -25 -4 -7 -3 -9 3 -6 13 8 86 -70 78 -83 -3 -5
-1 -10 6 -10 15 0 184 -162 181 -172 -1 -5 1 -7 6 -6 7 3 29 -14 121 -97 31
-27 55 -53 54 -57 -2 -4 0 -7 5 -6 13 5 82 -54 75 -65 -3 -6 -1 -7 5 -3 14 8
94 -53 86 -66 -3 -5 0 -7 8 -6 7 2 12 -2 11 -8 -1 -6 5 -11 12 -11 13 0 15
101 17 698 2 383 0 695 -4 693 -7 -5 -23 36 -20 49 1 5 -2 6 -7 3 -5 -3 -21
11 -37 32 -15 20 -32 39 -36 40 -5 2 -5 9 -2 14 4 7 2 8 -5 4 -6 -4 -25 4 -41
18 -17 13 -39 28 -50 31 -11 4 -17 11 -14 17 4 6 3 8 -3 5 -6 -4 -37 3 -69 14
-53 19 -205 35 -217 23z"/>
<path d="M5443 7501 c-35 -10 -63 -16 -63 -14 0 2 -7 -3 -16 -11 -8 -9 -20
-14 -25 -11 -5 4 -9 2 -9 -3 0 -12 -50 -45 -67 -45 -6 0 -11 -3 -10 -7 1 -3
-19 -30 -44 -60 -26 -30 -52 -65 -58 -78 -7 -12 -15 -21 -19 -18 -6 4 -6 -473
1 -1138 l2 -249 33 27 c17 15 32 25 32 21 0 -3 11 5 23 19 13 14 27 23 30 19
4 -3 7 -2 7 4 0 5 48 50 107 99 58 49 115 99 126 112 11 12 24 22 28 22 12 0
249 240 249 252 0 6 11 19 25 30 14 11 25 26 25 34 0 8 5 13 12 11 6 -1 14 7
16 18 2 11 10 24 18 28 8 4 14 14 14 21 0 8 7 17 16 20 8 3 12 10 9 16 -3 5 1
10 9 10 10 0 13 6 10 15 -4 8 -2 15 3 15 5 0 15 16 22 35 7 19 16 35 21 35 4
0 11 11 14 25 4 16 11 23 18 19 6 -4 8 -3 5 3 -9 14 12 73 25 73 5 0 6 4 3 10
-7 12 5 81 14 76 3 -2 3 44 -2 102 -10 139 -11 151 -17 147 -7 -4 -45 96 -42
108 2 5 -2 6 -8 2 -5 -3 -10 -1 -10 4 0 6 -9 20 -20 31 -12 12 -18 25 -15 31
4 5 3 8 -2 7 -14 -5 -93 64 -86 75 3 6 1 7 -5 4 -14 -9 -43 3 -36 14 3 5 2 9
-3 8 -19 -5 -62 14 -56 24 3 5 2 7 -4 4 -5 -3 -34 0 -64 8 -71 19 -160 18
-236 -4z"/>
</g>
</svg>
