<?xml version="1.0" encoding="UTF-8" standalone="no"?>
<!-- Generator: Adobe Illustrator 16.0.0, SVG Export Plug-In . SVG Version: 6.00 Build 0)  -->

<svg
   xmlns:dc="http://purl.org/dc/elements/1.1/"
   xmlns:cc="http://creativecommons.org/ns#"
   xmlns:rdf="http://www.w3.org/1999/02/22-rdf-syntax-ns#"
   xmlns:svg="http://www.w3.org/2000/svg"
   xmlns="http://www.w3.org/2000/svg"
   xmlns:sodipodi="http://sodipodi.sourceforge.net/DTD/sodipodi-0.dtd"
   xmlns:inkscape="http://www.inkscape.org/namespaces/inkscape"
   version="1.1"
   id="Capa_1"
   x="0px"
   y="0px"
   width="446px"
   height="446px"
   viewBox="0 0 446 446"
   style="enable-background:new 0 0 446 446;"
   xml:space="preserve"
   sodipodi:docname="analytical-icon.svg"
   inkscape:version="0.92.5 (2060ec1f9f, 2020-04-08)"><metadata
   id="metadata6557"><rdf:RDF><cc:Work
       rdf:about=""><dc:format>image/svg+xml</dc:format><dc:type
         rdf:resource="http://purl.org/dc/dcmitype/StillImage" /></cc:Work></rdf:RDF></metadata><defs
   id="defs6555" /><sodipodi:namedview
   pagecolor="#ffffff"
   bordercolor="#666666"
   borderopacity="1"
   objecttolerance="10"
   gridtolerance="10"
   guidetolerance="10"
   inkscape:pageopacity="0"
   inkscape:pageshadow="2"
   inkscape:window-width="1920"
   inkscape:window-height="1016"
   id="namedview6553"
   showgrid="false"
   inkscape:zoom="0.52914798"
   inkscape:cx="223"
   inkscape:cy="298.59322"
   inkscape:window-x="0"
   inkscape:window-y="27"
   inkscape:window-maximized="1"
   inkscape:current-layer="Capa_1" />
<g
   id="g6520">
	<g
   id="g6518">
		<g
   id="g6516">
			<path
   d="M255.936,245.482l61.225-44.666c3.045,1.728,6.479,2.884,10.172,3.301c14.667,1.65,27.943-8.938,29.596-23.603     c1.653-14.667-8.935-27.943-23.601-29.598c-14.667-1.651-27.943,8.936-29.595,23.604c-0.529,4.693,0.199,9.245,1.912,13.319     l-55.829,40.729c-4.269-5.176-10.466-8.777-17.646-9.585c-10.167-1.145-19.663,3.593-25.084,11.494l-69.454-24.962     c0.019-0.145,0.044-0.292,0.061-0.438c1.653-14.667-8.936-27.944-23.6-29.597c-14.667-1.655-27.943,8.934-29.596,23.603     c-1.652,14.663,8.935,27.941,23.601,29.592c8.353,0.943,16.252-2.091,21.813-7.581l72.548,26.068     c0.751,12.759,10.598,23.538,23.719,25.017c14.665,1.653,27.943-8.936,29.597-23.6     C255.889,247.539,255.939,246.504,255.936,245.482z M320.893,176.454c0.585-5.202,5.299-8.961,10.5-8.374     c5.204,0.587,8.961,5.298,8.374,10.502c-0.586,5.202-5.297,8.961-10.5,8.372C324.062,186.371,320.305,181.658,320.893,176.454z      M120.534,203.141c-0.587,5.206-5.299,8.963-10.502,8.374c-5.205-0.587-8.96-5.296-8.375-10.501     c0.587-5.204,5.299-8.959,10.502-8.375C117.363,193.228,121.119,197.939,120.534,203.141z M238.611,246.644     c-0.588,5.205-5.297,8.961-10.502,8.375c-5.202-0.588-8.959-5.297-8.374-10.502c0.585-5.203,5.296-8.959,10.5-8.373     C235.441,236.73,239.198,241.441,238.611,246.644z"
   id="path6502" />
			<path
   d="M136.181,232.521l-13.897,12.311c-2.881-1.528-6.085-2.561-9.517-2.949c-14.667-1.649-27.944,8.938-29.596,23.604     c-1.653,14.666,8.936,27.943,23.601,29.598c14.667,1.65,27.943-8.936,29.596-23.604c0.562-4.986-0.294-9.809-2.24-14.068     l20.582-18.229L136.181,232.521z"
   id="path6504" />
			<path
   d="M333.233,289.564c14.668,1.648,27.942-8.938,29.597-23.603c1.652-14.669-8.938-27.942-23.602-29.598     c-6.593-0.744-12.898,0.992-18.002,4.453l-23.01-15.495l-14.839,10.825l27.418,18.468c-0.558,1.706-0.954,3.495-1.164,5.35     C307.98,274.634,318.568,287.91,333.233,289.564z"
   id="path6506" />
			<path
   d="M184.186,213.071l14.991-13.275c3.679,2.755,8.112,4.602,13.002,5.153c6.646,0.75,13.003-1.021,18.126-4.542     l22.601,15.223l14.839-10.827l-27.089-18.245c0.533-1.664,0.916-3.406,1.117-5.209c1.651-14.665-8.938-27.943-23.602-29.594     c-14.667-1.654-27.943,8.935-29.595,23.599c-0.394,3.479-0.091,6.876,0.786,10.063l-23.706,20.997L184.186,213.071z"
   id="path6508" />
			<path
   d="M223,50.697c56.894,0,107.455,27.609,139.004,70.129l44.804-23.477c-7.665-11.102-16.381-21.594-26.124-31.338     C338.565,23.893,282.565,0.697,223,0.697c-45.665,0-89.227,13.647-126.053,38.988l35.06,36.938     C158.459,60.199,189.638,50.697,223,50.697z"
   id="path6510" />
			<path
   d="M50,223.697c0-44.016,16.532-84.236,43.7-114.801L59.127,72.47C20.938,113.773,0,167.123,0,223.697     c0,59.562,23.196,115.562,65.315,157.684c36.168,36.17,82.577,58.367,132.685,63.923v-50.419     C114.412,382.732,50,310.599,50,223.697z"
   id="path6512" />
			<path
   d="M430.388,141.441l-44.694,23.422C392.357,183.236,396,203.049,396,223.697c0,86.902-64.412,159.035-148,171.188v50.418     c50.108-5.555,96.517-27.752,132.685-63.922C422.804,339.261,446,283.261,446,223.697     C446,195.07,440.628,167.275,430.388,141.441z"
   id="path6514" />
		</g>
	</g>
</g>
<g
   id="g6522">
</g>
<g
   id="g6524">
</g>
<g
   id="g6526">
</g>
<g
   id="g6528">
</g>
<g
   id="g6530">
</g>
<g
   id="g6532">
</g>
<g
   id="g6534">
</g>
<g
   id="g6536">
</g>
<g
   id="g6538">
</g>
<g
   id="g6540">
</g>
<g
   id="g6542">
</g>
<g
   id="g6544">
</g>
<g
   id="g6546">
</g>
<g
   id="g6548">
</g>
<g
   id="g6550">
</g>
<path
   style="fill:#4d4d4d;stroke-width:1.88983047"
   d="M 168.76186,438.73428 C 117.09043,425.26348 75.158867,396.91666 43.438926,354.01275 -4.0372345,289.79721 -12.02862,199.73829 23.277859,126.80763 31.013818,110.82788 42.373086,93.35034 52.023749,82.578777 l 7.127946,-7.955838 16.800948,16.946741 16.800947,16.94674 -6.574528,8.20069 c -14.680112,18.31112 -26.765352,43.55455 -33.010748,68.95225 -4.812901,19.57228 -4.381374,57.3799 0.898499,78.72048 16.611877,67.14313 68.081867,115.60634 138.790387,130.68255 l 5.19704,1.10809 v 23.58688 23.58688 l -6.14195,-0.093 c -3.37807,-0.051 -13.79576,-2.08827 -23.15043,-4.52703 z"
   id="path6559"
   inkscape:connector-curvature="0" /><path
   style="fill:#4d4d4d;stroke-width:1.88983047"
   d="m 96.567596,290.46674 c -16.418394,-10.31554 -15.529298,-35.88377 1.555013,-44.71841 4.268531,-2.20735 8.913281,-2.8614 15.674671,-2.20723 8.49357,0.82174 10.41414,0.29286 16.54947,-4.55734 6.90936,-5.4621 6.97568,-5.47303 14.62969,-2.4105 l 7.68887,3.07648 -9.3791,8.43261 c -9.05842,8.14431 -9.34133,8.70815 -8.27452,16.49141 1.24307,9.06916 -1.66572,16.31863 -9.4747,23.61341 -6.78691,6.34002 -20.75705,7.43932 -28.969394,2.27957 z"
   id="path6561"
   inkscape:connector-curvature="0" /><path
   style="fill:#4d4d4d;stroke-width:1.88983047"
   d="m 241.28021,206.7563 c -8.97887,-6.39322 -11.23937,-7.24798 -14.52195,-5.4912 -5.10133,2.73016 -17.81235,2.65689 -23.94652,-0.13803 -4.40445,-2.0068 -5.54095,-1.58361 -11.90036,4.43129 l -7.03087,6.64998 -8.19939,-3.15419 -8.19938,-3.15418 11.63632,-10.08072 c 9.74656,-8.44359 11.45287,-10.81166 10.50669,-14.58154 -1.51701,-6.04423 4.93415,-20.21895 11.01546,-24.20357 17.23541,-11.29308 39.71716,0.84486 39.71716,21.44336 v 9.1636 l 12.86197,8.32479 12.86198,8.32479 -6.13854,5.14619 c -3.3762,2.83041 -6.56375,5.08884 -7.08346,5.01875 -0.5197,-0.0701 -5.7303,-3.5348 -11.57911,-7.69932 z"
   id="path6563"
   inkscape:connector-curvature="0" /><path
   style="fill:#4d4d4d;stroke-width:1.88983047"
   d="M 353.25428,108.69814 C 328.51504,79.971128 289.15505,58.349819 250.14211,52.056355 c -19.06267,-3.075138 -52.5947,-1.329345 -71.82908,3.739672 -8.25915,2.17661 -22.07993,7.376307 -30.71286,11.554883 L 131.90395,74.948319 115.06017,57.411872 98.216397,39.875424 105.14167,35.522658 C 126.48637,22.106805 152.87301,11.607813 180.10085,5.6971201 201.01172,1.1577302 244.47521,1.1308465 265.70274,5.6441723 319.0293,16.982286 364.97287,45.440221 398.95171,88.18 l 6.85156,8.618135 -20.45763,10.752625 c -11.25171,5.91395 -21.2144,10.75221 -22.13934,10.7517 -0.92496,-5.1e-4 -5.40335,-4.32245 -9.95202,-9.60432 z"
   id="path6565"
   inkscape:connector-curvature="0" /><path
   style="fill:#4d4d4d;stroke-width:1.88983047"
   d="m 249.49566,419.5368 0.52892,-23.81744 17.12149,-4.32526 c 63.23355,-15.97411 112.46385,-68.02739 125.99921,-133.2243 4.73403,-22.8028 3.78156,-58.06202 -2.11912,-78.44692 -4.55942,-15.75132 -5.93809,-13.94222 20.99414,-27.54868 l 18.36861,-9.28002 4.68056,15.5796 c 2.5743,8.56879 5.72427,21.10736 6.99991,27.86351 3.4387,18.21225 2.85555,62.08755 -1.06749,80.31779 -16.06521,74.65426 -65.08626,133.93505 -134.52408,162.67892 -16.35913,6.77187 -43.26752,13.98433 -52.25758,14.00699 l -5.25349,0.0133 z"
   id="path6567"
   inkscape:connector-curvature="0" /><path
   style="fill:#4d4d4d;stroke-width:1.88983047"
   d="m 323.35819,284.8039 c -8.86289,-5.5688 -12.65065,-12.45075 -12.49597,-22.70383 l 0.13352,-8.85122 -12.91608,-8.41516 -12.91608,-8.41516 5.10846,-4.18452 c 6.83936,-5.60236 8.22183,-5.42884 20.22068,2.53794 9.58947,6.36705 10.74074,6.68804 16.07015,4.48053 18.99537,-7.86814 40.53749,11.42436 34.19964,30.62822 -5.20594,15.77418 -24.07113,23.30081 -37.40432,14.9232 z"
   id="path6569"
   inkscape:connector-curvature="0" /><path
   style="fill:#4d4d4d;stroke-width:1.88983047"
   d="m 217.51682,268.31031 c -6.47208,-3.19136 -11.61142,-9.73583 -13.6596,-17.39425 -1.11577,-4.17201 -5.46711,-6.24206 -37.07804,-17.639 l -35.81393,-12.91229 -6.87171,3.7744 c -15.37017,8.4423 -33.179209,1.06824 -37.666502,-15.5963 -2.628857,-9.76283 0.323796,-18.43753 8.81258,-25.89078 5.476402,-4.80835 8.157312,-5.76395 16.170512,-5.76395 8.62275,0 10.34948,0.74375 16.87381,7.26808 5.09139,5.09139 7.63313,9.55097 8.48699,14.89075 l 1.21892,7.62266 34.28431,12.31373 c 33.11284,11.89298 34.41346,12.19943 38.06398,8.9683 10.16251,-8.99502 23.04994,-10.19324 33.48305,-3.11314 l 6.60796,4.48428 27.70849,-20.07538 c 27.47881,-19.90898 27.69947,-20.12727 26.62009,-26.33504 -1.54327,-8.87562 2.0729,-18.12946 9.70222,-24.82809 5.41947,-4.75835 8.19038,-5.76395 15.88242,-5.76395 7.69205,0 10.46295,1.0056 15.88242,5.76395 15.09281,13.25166 12.31418,33.78727 -5.83657,43.13548 -5.13374,2.64405 -14.80021,2.74874 -19.54081,0.21165 -2.99347,-1.60207 -8.64161,1.78583 -34.62355,20.76811 -27.4478,20.05323 -31.18622,23.42694 -32.25144,29.10509 -2.95356,15.74379 -21.48431,24.38796 -36.4556,17.00569 z m 17.91353,-14.9912 c 4.97358,-3.48364 5.42778,-9.5777 1.07251,-14.39022 -6.26319,-6.92075 -17.66049,-2.42527 -17.66049,6.96589 0,4.26993 6.11267,10.36624 10.39407,10.36624 1.09656,0 3.88382,-1.32386 6.19391,-2.94191 z m -117.8289,-43.49393 c 3.51444,-3.51444 3.91281,-12.33974 0.70194,-15.5506 -2.92341,-2.92342 -11.4393,-2.92342 -14.36271,0 -3.48764,3.48763 -2.80961,14.23729 1.0394,16.47913 4.79068,2.79032 9.22905,2.46379 12.62137,-0.92853 z m 219.22034,-24.5678 c 3.51444,-3.51443 3.9128,-12.33973 0.70194,-15.5506 -2.92342,-2.92341 -11.4393,-2.92341 -14.36271,0 -3.48763,3.48763 -2.80961,14.23729 1.0394,16.47913 4.79069,2.79032 9.22905,2.4638 12.62137,-0.92853 z"
   id="path6571"
   inkscape:connector-curvature="0" /></svg>