<?xml version="1.0" encoding="UTF-8" standalone="no"?>
<svg
   xmlns:dc="http://purl.org/dc/elements/1.1/"
   xmlns:cc="http://creativecommons.org/ns#"
   xmlns:rdf="http://www.w3.org/1999/02/22-rdf-syntax-ns#"
   xmlns:svg="http://www.w3.org/2000/svg"
   xmlns="http://www.w3.org/2000/svg"
   xmlns:sodipodi="http://sodipodi.sourceforge.net/DTD/sodipodi-0.dtd"
   xmlns:inkscape="http://www.inkscape.org/namespaces/inkscape"
   width="32"
   height="32"
   viewBox="0 0 32 32"
   fill="none"
   version="1.1"
   id="svg6956"
   sodipodi:docname="goal-oriented-icon.svg"
   inkscape:version="0.92.5 (2060ec1f9f, 2020-04-08)">
  <metadata
     id="metadata6962">
    <rdf:RDF>
      <cc:Work
         rdf:about="">
        <dc:format>image/svg+xml</dc:format>
        <dc:type
           rdf:resource="http://purl.org/dc/dcmitype/StillImage" />
      </cc:Work>
    </rdf:RDF>
  </metadata>
  <defs
     id="defs6960" />
  <sodipodi:namedview
     pagecolor="#ffffff"
     bordercolor="#666666"
     borderopacity="1"
     objecttolerance="10"
     gridtolerance="10"
     guidetolerance="10"
     inkscape:pageopacity="0"
     inkscape:pageshadow="2"
     inkscape:window-width="1920"
     inkscape:window-height="1016"
     id="namedview6958"
     showgrid="false"
     inkscape:zoom="7.375"
     inkscape:cx="16"
     inkscape:cy="16"
     inkscape:window-x="0"
     inkscape:window-y="27"
     inkscape:window-maximized="1"
     inkscape:current-layer="svg6956" />
  <path
     fill-rule="evenodd"
     clip-rule="evenodd"
     d="M16.0002 27.6667C22.4435 27.6667 27.6668 22.4434 27.6668 16C27.6668 9.55672 22.4435 4.33337 16.0002 4.33337C9.55684 4.33337 4.3335 9.55672 4.3335 16C4.3335 22.4434 9.55684 27.6667 16.0002 27.6667ZM16.0002 21C18.7616 21 21.0002 18.7615 21.0002 16C21.0002 13.2386 18.7616 11 16.0002 11C13.2387 11 11.0002 13.2386 11.0002 16C11.0002 18.7615 13.2387 21 16.0002 21Z"
     fill="#7E869E"
     fill-opacity="0.25"
     id="path6944" />
  <path
     d="M27.0668 16C27.0668 22.112 22.1121 27.0667 16.0002 27.0667V28.2667C22.7749 28.2667 28.2668 22.7747 28.2668 16H27.0668ZM16.0002 4.93337C22.1121 4.93337 27.0668 9.88809 27.0668 16H28.2668C28.2668 9.22535 22.7749 3.73337 16.0002 3.73337V4.93337ZM4.9335 16C4.9335 9.88809 9.88821 4.93337 16.0002 4.93337V3.73337C9.22547 3.73337 3.7335 9.22535 3.7335 16H4.9335ZM16.0002 27.0667C9.88821 27.0667 4.9335 22.112 4.9335 16H3.7335C3.7335 22.7747 9.22547 28.2667 16.0002 28.2667V27.0667ZM20.4002 16C20.4002 18.4301 18.4302 20.4 16.0002 20.4V21.6C19.093 21.6 21.6002 19.0928 21.6002 16H20.4002ZM16.0002 11.6C18.4302 11.6 20.4002 13.57 20.4002 16H21.6002C21.6002 12.9072 19.093 10.4 16.0002 10.4V11.6ZM11.6002 16C11.6002 13.57 13.5701 11.6 16.0002 11.6V10.4C12.9074 10.4 10.4002 12.9072 10.4002 16H11.6002ZM16.0002 20.4C13.5701 20.4 11.6002 18.4301 11.6002 16H10.4002C10.4002 19.0928 12.9074 21.6 16.0002 21.6V20.4Z"
     fill="#141F37"
     id="path6946" />
  <path
     d="M16 4.33333V1"
     stroke="#141F37"
     stroke-width="1.2"
     stroke-linecap="round"
     id="path6948" />
  <path
     d="M27.6667 16L31 16"
     stroke="#141F37"
     stroke-width="1.2"
     stroke-linecap="round"
     id="path6950" />
  <path
     d="M16 31L16 27.6666"
     stroke="#141F37"
     stroke-width="1.2"
     stroke-linecap="round"
     id="path6952" />
  <path
     d="M1.00016 16H4.3335"
     stroke="#141F37"
     stroke-width="1.2"
     stroke-linecap="round"
     id="path6954" />
  <path
     style="fill:#4d4d4d;stroke-width:0.13559322"
     d="M 14.78958,26.921657 C 12.165428,26.653554 9.8951044,25.492568 7.9484804,23.423295 4.1188698,19.352395 4.027046,13.132838 7.7316908,8.7393485 8.9442401,7.3013369 11.253895,5.8780173 13.242624,5.3432491 c 1.485769,-0.3995228 4.018214,-0.395372 5.509918,0.00903 3.764785,1.0206381 6.630813,3.8106107 7.817895,7.6104319 0.273886,0.876703 0.317699,1.29744 0.317699,3.050847 0,2.325515 -0.2128,3.252711 -1.170447,5.099767 -2.03877,3.932275 -6.432623,6.267623 -10.928109,5.808331 z m 3.542241,-5.796923 c 1.722256,-0.805941 2.875176,-2.30816 3.228148,-4.206179 0.438556,-2.358214 -0.869341,-4.879234 -3.116374,-6.006928 -0.870545,-0.43689 -0.978554,-0.45739 -2.409949,-0.45739 -1.459492,0 -1.525492,0.01331 -2.531744,0.510629 -1.69526,0.837842 -2.82093,2.362251 -3.065632,4.151549 -0.38972,2.849692 1.171431,5.374194 3.877215,6.269756 1.189223,0.393611 2.849341,0.285601 4.018336,-0.261437 z"
     id="path6964"
     inkscape:connector-curvature="0" />
  <path
     style="fill:#4d4d4d;stroke-width:0.13559322"
     d="m 14.240479,21.24561 c -1.00008,-0.370727 -1.519172,-0.717137 -2.257621,-1.506599 -2.5531238,-2.729496 -1.70511,-7.124893 1.68455,-8.731308 0.81897,-0.388123 0.987931,-0.417844 2.37327,-0.417474 1.374406,3.68e-4 1.555409,0.03165 2.305085,0.39845 2.383128,1.165998 3.660436,3.89707 2.986708,6.38602 -0.457324,1.689494 -1.523697,2.93929 -3.144553,3.685437 -1.074227,0.494511 -2.884341,0.579561 -3.947439,0.185474 z m 3.693657,-1.229704 c 0.841776,-0.407497 1.587378,-1.152647 2.066764,-2.065513 0.330837,-0.629991 0.37609,-0.863829 0.374819,-1.936834 -0.0012,-1.017931 -0.0565,-1.332787 -0.333404,-1.898305 -0.777186,-1.587258 -2.264649,-2.508474 -4.050366,-2.508474 -1.3702,0 -2.109152,0.306297 -3.081947,1.277476 -0.959125,0.95753 -1.332772,1.83484 -1.332772,3.129303 0,1.95691 1.260387,3.658893 3.175312,4.287831 0.669393,0.219856 2.471788,0.05813 3.181594,-0.285484 z"
     id="path6966"
     inkscape:connector-curvature="0" />
  <path
     style="fill:#4d4d4d;stroke-width:0.13559322"
     d="m 15.570872,31.276711 c -0.0772,-0.14425 -0.140364,-0.906962 -0.140364,-1.694916 v -1.432642 l -0.508474,-9.5e-4 C 14.242343,28.146983 12.38259,27.692805 11.366841,27.280069 7.2802163,25.619524 4.4039153,21.746677 3.8333338,17.136441 L 3.7541458,16.496609 2.1685984,16.458475 C 0.60245816,16.420805 0.58247831,16.416283 0.53627528,16.088953 0.45869993,15.539363 0.82059249,15.40339 2.3609049,15.40339 h 1.3870394 l 0.069847,-0.372882 c 0.038416,-0.205084 0.1096743,-0.673746 0.1583522,-1.041471 0.3456852,-2.611378 2.0279936,-5.4967539 4.33926,-7.4423881 1.6541,-1.3924287 4.7707435,-2.6648033 6.5345305,-2.6677328 l 0.571968,-9.5e-4 0.0382,-1.5787393 c 0.03218,-1.32989896 0.0756,-1.60228464 0.27549,-1.72812002 0.172632,-0.10867752 0.301945,-0.10873346 0.474576,-2.0475e-4 0.196094,0.12327744 0.249058,0.41740715 0.305085,1.69422177 l 0.0678,1.5450457 0.949152,0.1019085 c 5.287436,0.5677007 9.754113,4.9603333 10.534856,10.360218 L 28.2306,15.40339 h 1.381544 c 1.166103,0 1.431462,0.04096 1.701651,0.262691 0.260564,0.21383 0.292191,0.308408 0.170031,0.508475 -0.128376,0.210247 -0.374069,0.251269 -1.699321,0.283729 l -1.549247,0.03795 -0.155407,1.13967 c -0.533383,3.911566 -3.098271,7.502166 -6.615442,9.260993 -1.149706,0.574931 -2.89971,1.100724 -4.005672,1.203512 l -0.943481,0.08769 v 1.512732 c 0,0.995779 -0.0556,1.568336 -0.162712,1.675444 -0.24432,0.24432 -0.623476,0.196027 -0.78167,-0.09956 z m 3.927433,-4.737793 c 3.541126,-1.208789 6.303463,-4.129309 7.262048,-7.677901 0.325225,-1.203951 0.404611,-3.845069 0.151349,-5.035264 C 26.010042,9.5884404 22.901992,6.3281474 18.697409,5.2090965 17.314999,4.8411679 14.806995,4.8177051 13.464407,5.160141 9.8547965,6.0807959 6.9460176,8.5965635 5.6670323,11.903996 c -2.0592918,5.325291 0.1675004,11.341245 5.1533067,13.922296 1.958182,1.013711 2.977823,1.234212 5.491525,1.187566 1.735104,-0.0322 2.009049,-0.07303 3.186441,-0.47494 z"
     id="path6968"
     inkscape:connector-curvature="0" />
  <path
     style="fill:#4d4d4d;stroke-width:0.13559322"
     d="M 14.090953,26.785486 C 10.752052,26.187313 7.5550376,23.694343 6.0773782,20.536658 5.3266735,18.932439 5.082607,17.62133 5.1607615,15.612654 5.2570688,13.137432 5.81428,11.495606 7.2406655,9.4842072 8.3942631,7.8574766 10.45595,6.3835204 12.675291,5.5988456 13.80685,5.1987694 13.980606,5.1757555 15.905085,5.171062 c 1.763902,-0.0043 2.168262,0.037231 3.046069,0.3128721 3.557605,1.1171262 6.165517,3.604977 7.415692,7.0742919 0.31784,0.882026 0.372875,1.271651 0.421031,2.980757 0.06882,2.442606 -0.133303,3.512285 -0.989788,5.238068 -1.403655,2.828313 -3.900635,4.882511 -6.97775,5.740405 -1.179318,0.328792 -3.618585,0.467033 -4.729386,0.26803 z m 3.518335,-5.361127 c 0.923164,-0.271152 1.52334,-0.621874 2.275931,-1.329971 0.520007,-0.489265 1.240205,-1.440149 1.240205,-1.637456 0,-0.187744 -0.262958,-0.03884 -0.3356,0.190037 -0.08252,0.25998 -1.575478,2.008767 -1.657096,1.941045 -0.02367,-0.01965 -0.341377,0.11546 -0.706008,0.300233 -1.050053,0.532101 -2.940704,0.735234 -3.877567,0.416607 -0.960746,-0.32675 -1.706608,-0.770501 -2.315693,-1.377729 -0.722269,-0.720063 -1.548714,-2.164545 -1.548714,-2.706882 0,-0.170128 -0.06946,-0.352253 -0.154361,-0.404723 -0.231771,-0.143243 -0.02598,0.820706 0.354913,1.662466 0.838929,1.853995 2.878649,3.152943 4.961278,3.159473 0.564431,0.0018 1.357651,-0.09412 1.762712,-0.2131 z m 0.05851,-1.27426 c 0.694629,-0.214278 2.267422,-1.790132 2.523719,-2.528631 0.293833,-0.84666 0.22318,-2.847594 -0.124483,-3.525395 -0.37379,-0.728737 -1.274664,-1.596985 -2.12805,-2.050979 -0.577563,-0.307258 -0.848651,-0.361401 -1.830508,-0.365595 -1.420754,-0.0061 -1.726795,0.06744 -2.502317,0.60101 -0.681412,0.468824 -1.201871,1.068186 -1.641825,1.890732 -0.417033,0.77969 -0.446126,2.404287 -0.06147,3.43238 0.274979,0.734947 1.402648,2.138752 1.718048,2.138752 0.0821,0 0.226455,0.093 0.32079,0.206667 0.09433,0.113666 0.197644,0.18054 0.229577,0.148606 0.03193,-0.03193 0.218646,0.02525 0.414918,0.127082 0.4284,0.222256 2.263226,0.177821 3.081599,-0.07463 z m 3.791357,-2.601828 c 0.310454,-1.045412 0.250686,-3.094034 -0.09027,-3.094034 -0.07597,0 -0.08844,0.181997 -0.03019,0.440678 0.153822,0.683121 0.09315,2.00069 -0.124875,2.711865 -0.108599,0.354237 -0.144773,0.644067 -0.08038,0.644067 0.06439,0 0.210959,-0.316159 0.325713,-0.702576 z M 10.998613,13.860832 c 0.192002,-0.41939 0.323689,-0.762527 0.292635,-0.762527 -0.03105,0 0.25636,-0.336106 0.638696,-0.746902 0.450761,-0.484313 1.027863,-0.913348 1.641502,-1.220339 0.912266,-0.456388 1.001063,-0.473437 2.465793,-0.473437 1.42198,0 1.572449,0.02649 2.345717,0.412892 0.519566,0.25963 1.103756,0.71261 1.573824,1.220339 0.738908,0.79811 1.025654,1.012443 0.789179,0.589886 -0.313836,-0.560794 -1.517156,-1.593384 -2.331734,-2.0009 -0.877328,-0.43891 -0.94459,-0.450612 -2.467176,-0.429236 -1.408405,0.01977 -1.641795,0.05942 -2.329003,0.395641 -1.043613,0.510592 -2.123953,1.534075 -2.638688,2.499817 -0.465656,0.87366 -0.827671,2.64723 -0.63072,3.08999 0.07991,0.179648 0.141425,-0.05144 0.207259,-0.778614 0.05939,-0.655992 0.221259,-1.312886 0.442716,-1.79661 z m 10.397997,0.38566 c 0,-0.217087 -0.412748,-1.012594 -0.525384,-1.012594 -0.07284,0 -0.03019,0.243447 0.09477,0.540994 0.192794,0.459028 0.430609,0.719482 0.430609,0.4716 z"
     id="path6970"
     inkscape:connector-curvature="0" />
  <path
     style="fill:#4d4d4d;stroke-width:0.13559322"
     d="M 14.090953,26.785486 C 10.752052,26.187313 7.5550376,23.694343 6.0773782,20.536658 5.3266735,18.932439 5.082607,17.62133 5.1607615,15.612654 5.2570688,13.137432 5.81428,11.495606 7.2406655,9.4842072 8.3942631,7.8574766 10.45595,6.3835204 12.675291,5.5988456 13.80685,5.1987694 13.980606,5.1757555 15.905085,5.171062 c 1.763902,-0.0043 2.168262,0.037231 3.046069,0.3128721 3.565257,1.1195291 6.192743,3.6293081 7.43117,7.0982679 0.304099,0.85181 0.361193,1.26628 0.407313,2.956781 0.06649,2.437371 -0.136768,3.515718 -0.984768,5.224407 -1.416408,2.854008 -3.902557,4.902887 -6.98453,5.756068 -1.180065,0.326676 -3.623629,0.464127 -4.729386,0.266028 z m 4.260348,-5.669868 c 0.503972,-0.235838 0.88276,-0.462347 0.841751,-0.503356 -0.04101,-0.04101 -0.377253,0.07882 -0.747209,0.266294 -0.789446,0.400042 -2.276182,0.688629 -3.028096,0.587776 -0.322105,-0.0432 -0.529611,-0.01572 -0.529611,0.07013 0,0.09253 0.438703,0.11822 1.273426,0.07456 1.060604,-0.05548 1.426566,-0.138271 2.189739,-0.495403 z m -4.387387,-0.01924 c -0.471033,-0.217946 -1.093008,-0.583643 -1.382166,-0.81266 -0.699798,-0.55425 -1.574521,-1.887689 -1.856352,-2.829846 -0.125423,-0.419288 -0.249976,-0.662802 -0.276784,-0.54114 -0.07505,0.340608 0.430961,1.65285 0.900537,2.335356 0.231865,0.337003 0.683114,0.827048 1.002777,1.088987 0.608613,0.498713 1.916614,1.168857 2.265023,1.160467 0.111865,-0.0027 -0.182001,-0.183217 -0.653035,-0.401164 z m 6.878703,-2.175872 c 0.165087,-0.293733 0.245032,-0.534061 0.177654,-0.534061 -0.06738,0 -0.193087,0.154912 -0.279354,0.344249 -0.08627,0.189337 -0.431656,0.638038 -0.767529,0.997113 -0.335872,0.359074 -0.610676,0.705002 -0.610676,0.768727 0,0.215817 1.177771,-1.038454 1.479905,-1.576028 z m -3.053613,1.113391 c 0.856885,-0.379041 1.77765,-1.279589 2.208306,-2.159819 0.479746,-0.980567 0.513798,-2.591323 0.07572,-3.581681 -0.391357,-0.884727 -1.28239,-1.800054 -2.182651,-2.24216 -0.654761,-0.321544 -0.930971,-0.375466 -1.917493,-0.374332 -1.395122,0.0016 -2.130098,0.291129 -3.034231,1.195262 -1.010191,1.01019 -1.236143,1.571993 -1.23658,3.0746 -3.12e-4,1.093035 0.04989,1.390284 0.331503,1.962565 0.571987,1.162368 1.675834,2.066777 2.922359,2.394362 0.642696,0.168899 2.171496,0.02385 2.833072,-0.268797 z m 3.800959,-4.042745 c 0.0055,-0.758088 -0.03573,-1.42419 -0.09166,-1.480226 -0.187497,-0.187843 -0.210736,0.0061 -0.09067,0.756875 0.109445,0.684372 0.08473,0.980785 -0.220449,2.644067 -0.07385,0.402508 -0.07218,0.401796 0.159055,-0.0678 0.172019,-0.349336 0.236339,-0.838321 0.243727,-1.85292 z m -11.04081,-0.258766 c 0,-0.341088 0.154531,-1.080503 0.343403,-1.643143 0.438544,-1.306398 1.319555,-2.278127 2.684594,-2.961028 0.905088,-0.452797 0.997611,-0.470534 2.447848,-0.469259 1.88113,0.0017 2.522469,0.262229 3.917416,1.591646 0.577189,0.550074 0.841545,0.743236 0.662287,0.483926 -0.431512,-0.624217 -1.476045,-1.508621 -2.258938,-1.912639 -0.622736,-0.321367 -0.811123,-0.349112 -2.312484,-0.340572 -1.50552,0.0086 -1.692791,0.03881 -2.372882,0.383229 -1.999718,1.012726 -3.067732,2.509174 -3.311953,4.640543 -0.06692,0.584038 -0.05082,0.847457 0.0518,0.847457 0.08644,0 0.148907,-0.26015 0.148907,-0.62016 z m 10.592067,-2.04501 c -0.151248,-0.286699 -0.277695,-0.441969 -0.280989,-0.345045 -0.008,0.234972 0.402454,1.019847 0.488385,0.933916 0.03718,-0.03718 -0.05615,-0.302173 -0.207396,-0.588871 z"
     id="path6972"
     inkscape:connector-curvature="0" />
  <path
     style="fill:#4d4d4d;stroke-width:0.13559322"
     d="M 13.743825,26.714697 C 11.746405,26.266075 10.10576,25.374427 8.537723,23.885319 6.8727391,22.304145 5.7863332,20.426998 5.3257919,18.335581 5.0029398,16.86944 5.1026527,14.247064 5.5326671,12.894915 6.1160593,11.060482 7.2353082,9.2131528 8.431264,8.1107593 14.043805,2.9372994 22.766035,4.6435713 25.951517,11.53813 c 0.667218,1.444103 0.864868,2.45186 0.864464,4.407633 -4.07e-4,2.157818 -0.235897,3.278265 -1.014694,4.828667 -1.444808,2.876268 -3.887836,4.887068 -6.980948,5.745857 -1.389031,0.385659 -3.811896,0.478445 -5.076514,0.19441 z m 3.494578,-5.228331 c 0.422607,-0.08487 0.768377,-0.201988 0.768377,-0.260258 0,-0.05827 -0.228814,-0.04202 -0.508475,0.03611 -0.279661,0.07813 -0.966102,0.186711 -1.525424,0.241291 -0.987785,0.09639 -0.995238,0.09978 -0.259902,0.118204 0.416375,0.01043 1.102816,-0.05047 1.525424,-0.135347 z m -3.558459,-0.521704 c -0.552642,-0.29331 -1.20766,-0.729907 -1.455596,-0.970216 -0.247937,-0.240309 -0.485134,-0.402587 -0.527105,-0.360615 -0.13551,0.135509 1.065456,1.062953 1.902757,1.469402 1.192264,0.578756 1.248345,0.481547 0.07994,-0.138571 z m 5.547175,-0.333619 c 0,-0.03023 -0.243447,0.04728 -0.540994,0.172246 -0.297547,0.124971 -0.541614,0.274223 -0.542373,0.33167 -7.59e-4,0.05745 0.242689,-0.02006 0.540994,-0.172247 0.298305,-0.152185 0.542373,-0.301435 0.542373,-0.331669 z m -1.624257,-0.535481 c 1.055729,-0.363727 2.195008,-1.558889 2.563282,-2.689014 0.194919,-0.598151 0.207087,-2.157584 0.02175,-2.787631 -0.306324,-1.041343 -1.316308,-2.140297 -2.435703,-2.650265 -0.87735,-0.399698 -2.66632,-0.395125 -3.568646,0.0091 -0.809748,0.362771 -1.808482,1.357729 -2.186922,2.178651 -0.430217,0.93324 -0.416572,2.819674 0.0269,3.719672 0.56323,1.143027 1.730374,2.108089 2.932405,2.42468 0.523404,0.137855 1.978634,0.02503 2.64693,-0.205216 z m 3.261649,-1.185944 c 0.09107,-0.17016 0.08928,-0.251991 -0.0055,-0.251991 -0.0772,0 -0.140363,0.05442 -0.140363,0.120929 0,0.06651 -0.274576,0.426323 -0.610169,0.799584 -0.335594,0.373259 -0.607747,0.730706 -0.604786,0.794325 0.0066,0.141695 1.173328,-1.112512 1.360822,-1.462847 z m -9.437257,0.0693 c -0.183736,-0.27075 -0.468347,-0.860553 -0.632469,-1.310673 -0.164122,-0.45012 -0.319325,-0.75564 -0.344894,-0.678931 -0.115947,0.347841 0.896892,2.481876 1.177928,2.481876 0.07343,0 -0.01683,-0.221522 -0.200565,-0.492272 z m 10.182124,-2.588235 c 0.04392,-0.505721 0.0151,-1.16356 -0.06404,-1.461865 -0.131731,-0.496524 -0.138265,-0.467111 -0.07729,0.347937 0.05758,0.769713 -0.02793,1.586968 -0.275717,2.635113 -0.03526,0.149153 0.02619,0.07479 0.136543,-0.165253 0.110357,-0.240041 0.236587,-0.850211 0.280507,-1.355932 z M 10.552653,15.632676 c 0.0019,-0.312548 0.149132,-0.995388 0.327127,-1.517422 0.177994,-0.522034 0.299986,-0.973043 0.271093,-1.002242 -0.113484,-0.114687 -0.605453,1.265224 -0.734446,2.060031 -0.171334,1.055689 -0.171748,1.216076 -0.0029,1.111703 0.07458,-0.04609 0.137169,-0.339522 0.139094,-0.65207 z m 10.647084,-1.843804 c -0.265398,-0.513222 -0.388538,-0.550236 -0.202479,-0.06086 0.180114,0.473737 0.277124,0.622466 0.355131,0.544459 0.03532,-0.03532 -0.03337,-0.252938 -0.152652,-0.483597 z m -9.213905,-1.503944 c 0.387212,-0.413961 1.003376,-0.862582 1.582974,-1.152543 0.915599,-0.458055 1.002532,-0.474758 2.470982,-0.474758 1.403117,0 1.581738,0.03013 2.286867,0.385809 0.420679,0.212195 0.76487,0.339686 0.76487,0.283315 0,-0.05637 -0.317064,-0.260494 -0.704589,-0.453606 -0.644279,-0.321057 -0.848665,-0.351111 -2.387799,-0.351111 -1.616445,0 -1.713994,0.01641 -2.459284,0.413642 -0.918763,0.489696 -1.650835,1.07155 -2.045446,1.62573 -0.428415,0.601654 -0.220604,0.484739 0.491425,-0.276478 z m 8.18314,-0.07911 c -0.257002,-0.267138 -0.589311,-0.549041 -0.738464,-0.626451 -0.149152,-0.07741 8.14e-4,0.141158 0.333317,0.485706 0.332476,0.344548 0.664785,0.62645 0.738462,0.62645 0.07368,0 -0.07631,-0.218567 -0.333315,-0.485705 z"
     id="path6974"
     inkscape:connector-curvature="0" />
</svg>
