<?xml version="1.0" encoding="UTF-8" standalone="no"?>
<svg
   xmlns:dc="http://purl.org/dc/elements/1.1/"
   xmlns:cc="http://creativecommons.org/ns#"
   xmlns:rdf="http://www.w3.org/1999/02/22-rdf-syntax-ns#"
   xmlns:svg="http://www.w3.org/2000/svg"
   xmlns="http://www.w3.org/2000/svg"
   xmlns:sodipodi="http://sodipodi.sourceforge.net/DTD/sodipodi-0.dtd"
   xmlns:inkscape="http://www.inkscape.org/namespaces/inkscape"
   width="24"
   height="24"
   viewBox="0 0 24 24"
   version="1.1"
   id="svg6291"
   sodipodi:docname="kind-icon.svg"
   inkscape:version="0.92.5 (2060ec1f9f, 2020-04-08)">
  <metadata
     id="metadata6297">
    <rdf:RDF>
      <cc:Work
         rdf:about="">
        <dc:format>image/svg+xml</dc:format>
        <dc:type
           rdf:resource="http://purl.org/dc/dcmitype/StillImage" />
        <dc:title></dc:title>
      </cc:Work>
    </rdf:RDF>
  </metadata>
  <defs
     id="defs6295" />
  <sodipodi:namedview
     pagecolor="#ffffff"
     bordercolor="#666666"
     borderopacity="1"
     objecttolerance="10"
     gridtolerance="10"
     guidetolerance="10"
     inkscape:pageopacity="0"
     inkscape:pageshadow="2"
     inkscape:window-width="1920"
     inkscape:window-height="1016"
     id="namedview6293"
     showgrid="false"
     inkscape:zoom="9.8333333"
     inkscape:cx="12"
     inkscape:cy="12"
     inkscape:window-x="0"
     inkscape:window-y="27"
     inkscape:window-maximized="1"
     inkscape:current-layer="svg6291" />
  <path
     d="M12 4.248c-3.148-5.402-12-3.825-12 2.944 0 4.661 5.571 9.427 12 15.808 6.43-6.381 12-11.147 12-15.808 0-6.792-8.875-8.306-12-2.944z"
     id="path6289" />
  <path
     style="fill:#4d4d4d;stroke-width:0.10169491"
     d="M 8.3016387,19.263673 C 3.5094123,14.494763 1.9069085,12.567625 0.84100574,10.291667 0.28433083,9.1030332 0.08135593,8.2551131 0.08135593,7.1182586 c 0,-1.6950937 0.56507598,-3.121376 1.67730267,-4.2336027 2.6950138,-2.69501379 7.5668285,-2.31282056 9.7633754,0.7659355 0.223729,0.313586 0.438903,0.5723526 0.478165,0.5750367 0.03926,0.00268 0.205443,-0.1896112 0.369292,-0.427323 0.37457,-0.5434279 1.257293,-1.3816827 1.846978,-1.7539345 1.389032,-0.8768568 3.433626,-1.19280364 5.059061,-0.7817657 1.276343,0.3227602 2.100684,0.7727563 2.937615,1.6036019 1.181288,1.1727003 1.716764,2.5277424 1.704557,4.3134542 -0.0084,1.2357118 -0.211754,2.0012238 -0.904782,3.40678 -1.071163,2.172463 -2.675567,4.066088 -7.653496,9.033164 l -3.345542,3.33825 z"
     id="path6299"
     inkscape:connector-curvature="0" />
</svg>
